<?xml version="1.0" encoding="utf-8"?>
<!-- Generator: Adobe Illustrator 23.0.6, SVG Export Plug-In . SVG Version: 6.00 Build 0)  -->
<svg version="1.1" id="Capa_1" xmlns="http://www.w3.org/2000/svg" xmlns:xlink="http://www.w3.org/1999/xlink" x="0px" y="0px"
	 viewBox="0 0 483 139.5" style="enable-background:new 0 0 483 139.5;" xml:space="preserve">
<style type="text/css">
	.st0{fill:#FFFFFF;}
	.st1{clip-path:url(#SVGID_2_);}
	.st2{clip-path:url(#SVGID_4_);}
	.st3{clip-path:url(#SVGID_6_);}
	.st4{clip-path:url(#SVGID_8_);}
	.st5{font-family:'MyriadPro-Light';}
	.st6{font-size:39.9789px;}
	.st7{font-family:'MyriadPro-Bold';}
	.st8{font-size:42.1305px;}
</style>
<title>logo</title>
<path class="st0" d="M119.2,105.7c0,0,4.2-22.3,5.1-25.7c0.9-3.5,1.2-4.4,2.4-4.2c1.2,0.2,1.6,0.7,1.4,2c-0.1,1.6-0.4,3.2-0.7,4.8
	c-0.4,2-4.6,23.6-4.6,23.6C122.5,108.1,119.2,107.5,119.2,105.7z"/>
<path class="st0" d="M125.3,76.1c0.4-0.9,0.8-1.1,1.5-1c0.9,0,1.6,0.7,1.6,1.6c0,0.1,0,0.2,0,0.3c0,0,1.6-10.2,2.8-12.1
	c1.1-1.9,3.2-3.9,3.4-5.9s-3-3.4-6.1-4.2c-3.1-0.9-2,0.5,0.3,1.4c2.3,0.9,5.2,1.5,2.4,4.7c-2.8,3.2-3,4.3-3.5,6.1
	C127.1,68.7,125.3,76.1,125.3,76.1z"/>
<g>
	<defs>
		<path id="SVGID_1_" d="M125.3,76.1c0.4-0.9,0.8-1.1,1.5-1c0.9,0,1.6,0.7,1.6,1.6c0,0.1,0,0.2,0,0.3c0,0,1.6-10.2,2.8-12.1
			c1.1-1.9,3.2-3.9,3.4-5.9s-3-3.4-6.1-4.2c-3.1-0.9-2,0.5,0.3,1.4c2.3,0.9,5.2,1.5,2.4,4.7c-2.8,3.2-3,4.3-3.5,6.1
			C127.1,68.7,125.3,76.1,125.3,76.1z"/>
	</defs>
	<clipPath id="SVGID_2_">
		<use xlink:href="#SVGID_1_"  style="overflow:visible;"/>
	</clipPath>
	<g class="st1">
		
			<image style="overflow:visible;enable-background:new    ;" width="43" height="114" xlink:href="B704B12408C69E73.png"  transform="matrix(0.2131 0 0 0.2131 125.0178 54.9095)">
		</image>
	</g>
</g>
<path class="st0" d="M98.7,98.1c0.5-2.5,1.9-4.8,4-6.4c1.5-1.2,3.4-2,5.4-2.1l0.6,0.1c2,0.2,3.7,1.3,4.9,2.9c1.2,1.8,1.7,3.9,1.4,6
	c0,0.3-0.1,0.6-0.2,0.9c-1.1,4.9-5.5,8.5-10,7.9c-2-0.2-3.7-1.3-4.9-2.9c-0.9-1.3-1.4-2.8-1.5-4.3c0-0.4,0-0.8,0.1-1.2
	C98.6,98.7,98.7,98.4,98.7,98.1z"/>
<path class="st0" d="M104.8,108.1c2.4,0.3,4.8-0.5,6.7-2c2-1.6,3.4-3.8,4-6.4c0.6-2.5,0.1-5.2-1.4-7.4c-0.2-0.3-0.4-0.5-0.6-0.7
	c0.5,0.4,0.9,0.9,1.2,1.4c1.5,2.2,2,4.9,1.4,7.4c-0.5,2.5-1.9,4.8-4,6.4c-1.9,1.5-4.3,2.3-6.7,2c-1.8-0.2-3.5-1.1-4.7-2.4
	C101.9,107.3,103.3,107.9,104.8,108.1z"/>
<path class="st0" d="M79,131l19.2-17.5c0.8-0.7,0.5-1.3-0.1-1.9l-0.1-0.1c-0.6-0.6-1.3-1-2-0.3l-19.2,17.3c-0.8,0.6-1,1.7-0.5,2.6
	l0.1,0.1C77.2,131.9,78.4,131.8,79,131z"/>
<path class="st0" d="M98.6,111.1L98.6,111.1c-0.3-0.3-0.6-0.5-0.9-0.7l3.2-2.9c0.6,0.4,1.2,0.8,1.9,1l-3.6,3.3
	C99,111.6,98.8,111.3,98.6,111.1z"/>
<image style="overflow:visible;enable-background:new    ;" width="34" height="36" xlink:href="B704B12408C69E71.png"  transform="matrix(0.2131 0 0 0.2131 72.1687 7.8141)">
</image>
<image style="overflow:visible;enable-background:new    ;" width="14" height="18" xlink:href="B704B12408C69E77.png"  transform="matrix(0.2131 0 0 0.2131 71.1032 13.9941)">
</image>
<image style="overflow:visible;enable-background:new    ;" width="164" height="76" xlink:href="B704B12408C69E70.png"  transform="matrix(0.2131 0 0 0.2131 86.4465 19.7478)">
</image>
<path class="st0" d="M79.1,12.3c-0.7,1.3-1.7,2.5-2.9,3.4c0,0,5.1,4.6,7.2,6.3c0.9,0.7,1.8,1.4,2.7,2c-0.4-1.1-0.2-2.3,0.5-3.2
	c0.6-1,1.7-1.6,2.8-1.5L79.1,12.3z"/>
<g>
	<defs>
		<path id="SVGID_3_" d="M79.1,12.3c-0.7,1.3-1.7,2.5-2.9,3.4c0,0,5.1,4.6,7.2,6.3c0.9,0.7,1.8,1.4,2.7,2c-0.4-1.1-0.2-2.3,0.5-3.2
			c0.6-1,1.7-1.6,2.8-1.5L79.1,12.3z"/>
	</defs>
	<clipPath id="SVGID_4_">
		<use xlink:href="#SVGID_3_"  style="overflow:visible;"/>
	</clipPath>
	<g class="st2">
		
			<image style="overflow:visible;enable-background:new    ;" width="203" height="109" xlink:href="B704B12408C69E7E.png"  transform="matrix(0.2131 0 0 0.2131 76.0045 12.0762)">
		</image>
	</g>
</g>
<path class="st0" d="M26.7,68c-3.6,6.5-7.8,16.7-8,20.2c-0.1,1.8-0.7,2.7-1.2,3c-0.4,0.3-1,0.4-1.5,0.3c-1.1-0.3-1.9-1.3-1.9-2.5
	c-1.1-6.3,4.3-15.5,8.6-22.9C24,63.9,27.8,65.9,26.7,68z"/>
<path class="st0" d="M32.8,69.1c-0.2,2-0.3,4-0.5,6c-0.4,6.7-0.8,13-4,17.2c-0.8,0.7-1.9,1-2.9,0.8l0,0c-0.6-0.1-1-0.5-1.3-1
	c-0.4-0.8-0.1-2,0.7-3.5c2.1-3.6,3.2-9.8,3.9-20C29,66.8,33,66.7,32.8,69.1z"/>
<path class="st0" d="M33.7,49.6c0,0.1,0,0.2,0,0.4c0.2,0.9,0.5,1.7,0.9,2.5c0,0-3.8,10.2-5.2,12.4c-0.2,0.3-0.4,0.6-0.5,0.8
	l-0.1,1.6c0.9-0.8,3.2-0.9,4.1,0.3c0,0,1.1-5.3,1.4-6.6c0.7-2.9,1.6-5.8,2.7-8.6c1-2.6,2.4-5.3,2.5-7.5c0.1-2.2-0.7-4.6-1.8-4.7
	c-1.1-0.1-0.8,4.3-1.2,6C36,47.5,35,48.8,33.7,49.6z"/>
<g>
	<defs>
		<path id="SVGID_5_" d="M33.7,49.6c0,0.1,0,0.2,0,0.4c0.2,0.9,0.5,1.7,0.9,2.5c0,0-3.8,10.2-5.2,12.4c-0.2,0.3-0.4,0.6-0.5,0.8
			l-0.1,1.6c0.9-0.8,3.2-0.9,4.1,0.3c0,0,1.1-5.3,1.4-6.6c0.7-2.9,1.6-5.8,2.7-8.6c1-2.6,2.4-5.3,2.5-7.5c0.1-2.2-0.7-4.6-1.8-4.7
			c-1.1-0.1-0.8,4.3-1.2,6C36,47.5,35,48.8,33.7,49.6z"/>
	</defs>
	<clipPath id="SVGID_6_">
		<use xlink:href="#SVGID_5_"  style="overflow:visible;"/>
	</clipPath>
	<g class="st3">
		
			<image style="overflow:visible;enable-background:new    ;" width="49" height="156" xlink:href="B704B12408C69E7F.png"  transform="matrix(0.2131 0 0 0.2131 28.6961 40.2055)">
		</image>
	</g>
</g>
<path class="st0" d="M33.7,49.9c0.2,0.9,0.5,1.7,0.9,2.5c0,0-4.1,8.4-5.2,10.8c-1.4,2.2-1.4,4.2-2,3.2c-0.8-1.5-2.6-2.3-4.2-1.7
	c-2.5,0.6,2.5-3.7,4.1-8c1.6-4.3,2.6-11.5,4.4-13.8c1.8-2.3,4.6-4,5.3-3.5s-0.4,2.4-1.6,3.7S33.4,48.2,33.7,49.9z"/>
<g>
	<defs>
		<path id="SVGID_7_" d="M33.7,49.9c0.2,0.9,0.5,1.7,0.9,2.5c0,0-4.1,8.4-5.2,10.8c-1.4,2.2-1.4,4.2-2,3.2c-0.8-1.5-2.6-2.3-4.2-1.7
			c-2.5,0.6,2.5-3.7,4.1-8c1.6-4.3,2.6-11.5,4.4-13.8c1.8-2.3,4.6-4,5.3-3.5s-0.4,2.4-1.6,3.7S33.4,48.2,33.7,49.9z"/>
	</defs>
	<clipPath id="SVGID_8_">
		<use xlink:href="#SVGID_7_"  style="overflow:visible;"/>
	</clipPath>
	<g class="st4">
		
			<image style="overflow:visible;enable-background:new    ;" width="67" height="138" xlink:href="B704B12408C69E72.png"  transform="matrix(0.2131 0 0 0.2131 22.5161 39.5662)">
		</image>
	</g>
</g>
<path class="st0" d="M58.7,23.9c1.5-1.8,4.2-4,5.8-4.4c0.2,0,0.2-0.2,0.2-0.4c0,0,0-0.1-0.1-0.1c-2.4-2.4-4.7-3.1-9.2,1.1
	c-4,3.7-4.9,5.6-6,6.3c-0.3,0.2-0.4,0.6-0.2,0.9c0,0,0,0.1,0.1,0.1C51.2,29.4,54,29.2,58.7,23.9z"/>
<path class="st0" d="M51.5,18.3l-1.6,1.4l0,0c-1.1,0.9-2.2,1.9-3.2,3c0.9,1,1.6,2.1,2.2,3.4c0.1,0,0.1-0.1,0.2-0.1
	c0.5-0.4,1-0.9,1.4-1.5c1.4-1.7,2.9-3.3,4.5-4.8c2.3-2.1,4-3,5.6-3.1c-1-1-1.9-2.1-2.7-3.3L51.5,18.3z"/>
<path class="st0" d="M18.3,47.5l0.6-0.5l23.7-19.7c2.4-3.4,2.3-4.2,6.9-8.1l-0.4,0.3c0.6-0.5,1.3-1.1,2-1.7l6.4-5.2
	c0.5-0.4,0.6-1.2,0.2-1.8c-0.4-0.5-1.2-0.6-1.8-0.2l-10,8.1c-3.7,3.1-7.1,6.5-13.3,11.6C26.1,35.8,20,40.9,15.7,44.3
	c0,0-1.1,1,0.1,2.5C16.4,47.6,17.4,47.9,18.3,47.5z"/>
<path class="st0" d="M65.3,122.8c0.2,0,0.4,0.1,0.9,0.6c0.5,0.5,3,2.6,3,2.6c0.5,0.5,0.5,1.2,0.1,2c-0.4,0.8-1.9,3-2.8,3.5
	c-0.5,0.4-1.3,0.3-1.8-0.1c-0.4-0.3-3.6-2.2-3.6-2.2c-0.2-0.1-0.3-0.3-0.4-0.4L65.3,122.8z"/>
<path class="st0" d="M66,123.2c-0.8,1.7-1.8,3.3-3.1,4.7c-0.5,0.5-0.9,1-1.4,1.4l3.4,2.1c1.1,0.6,2,0.4,3.5-1.8
	c1.5-2.2,1.6-3.1,0.6-3.8C68.4,125.3,66.8,123.9,66,123.2z"/>
<polygon class="st0" points="36.3,94.3 34.7,93.1 23.8,107.8 25.5,109 "/>
<path class="st0" d="M64.6,118.2L37,95l-10.6,14.5l29.1,19.2c1.8,1.2,2.6,1.8,4.1,1.1c2.6-1.8,4.6-4.2,5.8-7.1
	C66.9,119.9,65.7,119.2,64.6,118.2z"/>
<path class="st0" d="M119.1,49.9l-4.1-0.5c-2-0.3-4.7-0.1-5.5,1.8c-0.3,0.6-0.3,1.3,0,1.9c-0.6-1.5,1-3.3,4.1-3.1
	c1.3,0.1,1.1,1,2.7,1.3h0.4c1.7,0.2,2-0.7,3.3-0.5c4,0.7,3.8,3.6,1.6,4.6l0,0c1-0.4,1.7-1.2,2-2.3C123.9,51.1,121.2,50.2,119.1,49.9
	z"/>
<path class="st0" d="M112.2,39c0.2,0.7,0.2,1.4,0,2c-0.8,2.1-2.9,4.1-2,6c0.4,0.7,0.7,1.3,1,1.9"/>
<path class="st0" d="M115.5,57c2.1,0.2,4.2,0.1,6.3-0.3c-2.1-0.7-12.3-1.7-15.1-1.6C109.3,56.6,113.3,57,115.5,57z"/>
<path class="st0" d="M117.5,57.9c-0.6,0-1.2,0-1.8,0c-2.5-0.1-6.9-0.5-9.7-2.2c-0.8,2-1.2,4.2-1.5,6.3c-0.4,5,0,7.6,1.7,8.1
	c1.9,0.6,3.3-0.1,4.8,0.2c1.6,0.4,3.1,1.6,4.9,1.3c4-0.6,5.2-4.7,5.8-8.3c0,0,0.5-4.1,0.5-5.9C120.7,57.8,119.1,57.9,117.5,57.9z"/>
<path class="st0" d="M111.7,54.8c1.5,0.1,3.1,0.3,4.7,0.5c1.6,0.2,2.8,0.3,3.7,0.5l0.3-0.1l0,0c0.5-0.1,1-0.4,1.4-0.8
	c0.6-0.4,0.8-1.1,0.7-1.8c-0.1-0.8-1.1-1.5-2.7-1.8h-0.3c-0.3,0-0.6,0.1-0.9,0.2c-0.5,0.2-1,0.3-1.6,0.3c-0.2,0-0.4,0-0.5,0
	l-0.4-0.1c-0.7-0.1-1.3-0.4-1.8-0.9c-0.2-0.2-0.5-0.4-0.9-0.4H113c-1.1-0.1-2.2,0.4-2.9,1.2c-0.3,0.4-0.7,1.1-0.6,1.5l0,0
	C110.1,54,110.9,54.5,111.7,54.8z"/>
<circle class="st0" cx="66.6" cy="11.7" r="2.8"/>
<path class="st0" d="M101,14.5c-0.7-0.3-1.5-0.2-2.2,0.1c0.1,0.5,0.1,0.9-0.1,1.4c-0.3,0.6-0.8,1.1-1.5,1.3c0.1,1.5,1.5,2.7,3,2.6
	c1.5-0.1,2.7-1.5,2.6-3C102.7,15.8,102,14.9,101,14.5L101,14.5z"/>
<path class="st0" d="M98.1,15.7c-0.3,0.8-1.3,1.2-2.1,0.9c-0.8-0.3-1.2-1.3-0.9-2.1c0.3-0.8,1.3-1.2,2.1-0.9c0,0,0,0,0,0
	C98.1,14,98.5,14.9,98.1,15.7z"/>
<path class="st0" d="M43.6,81.5c-0.7-0.3-1.5-0.3-2.2,0.1c0.1,0.4,0.1,0.9-0.1,1.4c-0.3,0.6-0.8,1.1-1.5,1.3c0.1,1.5,1.4,2.7,3,2.6
	c1.5-0.1,2.7-1.4,2.6-3C45.3,82.9,44.6,81.9,43.6,81.5z"/>
<path class="st0" d="M40.7,82.8c-0.3,0.8-1.3,1.2-2.1,0.9s-1.2-1.3-0.9-2.1c0.3-0.8,1.3-1.2,2.1-0.9c0,0,0,0,0,0
	C40.6,81,41,82,40.7,82.8z"/>
<path class="st0" d="M71.1,25.6c-0.8,0-1.5,0.3-2.1,0.9c0.7,1,0.5,2.3-0.5,3.1c0.7,1.4,2.3,2,3.7,1.3c1.4-0.7,2-2.3,1.3-3.7
	C73.2,26.2,72.2,25.6,71.1,25.6L71.1,25.6z"/>
<path class="st0" d="M68.9,27.8c0,0.9-0.7,1.6-1.6,1.6s-1.6-0.7-1.6-1.6c0-0.9,0.7-1.6,1.6-1.6l0,0C68.2,26.2,68.9,26.9,68.9,27.8z"
	/>
<path class="st0" d="M18.1,53.2c-0.8,0-1.5,0.3-2.1,0.9c0.7,1,0.5,2.3-0.5,3.1c0.7,1.4,2.3,2,3.7,1.3c1.4-0.7,2-2.3,1.3-3.7
	C20.1,53.8,19.2,53.2,18.1,53.2L18.1,53.2z"/>
<path class="st0" d="M15.8,55.4c0,0.9-0.7,1.6-1.6,1.6c-0.9,0-1.6-0.7-1.6-1.6c0-0.9,0.7-1.6,1.6-1.6c0,0,0,0,0,0
	C15.1,53.8,15.8,54.5,15.8,55.4z"/>
<path class="st0" d="M76.2,114c-0.8,0-1.5,0.3-2.1,0.9c0.3,0.4,0.4,0.8,0.4,1.3c0,0.7-0.3,1.4-0.9,1.8c0.7,1.4,2.3,2,3.7,1.3
	c1.4-0.7,2-2.3,1.3-3.7C78.3,114.6,77.3,114,76.2,114L76.2,114z"/>
<path class="st0" d="M74,116.2c0,0.9-0.7,1.6-1.6,1.6c-0.9,0-1.6-0.7-1.6-1.6c0-0.9,0.7-1.6,1.6-1.6c0,0,0,0,0,0
	C73.3,114.6,74,115.3,74,116.2C74,116.2,74,116.2,74,116.2z"/>
<circle class="st0" cx="87.4" cy="11.2" r="1.8"/>
<circle class="st0" cx="73.1" cy="90.7" r="1.8"/>
<circle class="st0" cx="18.2" cy="95.4" r="1.8"/>
<circle class="st0" cx="62.8" cy="108.5" r="1.5"/>
<circle class="st0" cx="40.5" cy="64.1" r="1.8"/>
<circle class="st0" cx="37.5" cy="21" r="1.8"/>
<circle class="st0" cx="130.6" cy="88.7" r="1.8"/>
<circle class="st0" cx="129.4" cy="48.3" r="1.8"/>
<circle class="st0" cx="95.9" cy="124.6" r="2.7"/>
<circle class="st0" cx="110.2" cy="81.4" r="3.4"/>
<path class="st0" d="M115.7,79.6c-0.6-0.3-1.3-0.3-1.9,0c0.5,1.1,0.5,2.3,0.1,3.4c-0.1,0.3-0.3,0.6-0.5,0.8c0.1,0.1,0.2,0.1,0.4,0.2
	c1.2,0.6,2.6,0.1,3.2-1c0.6-1.2,0.1-2.6-1-3.2C115.9,79.7,115.8,79.7,115.7,79.6L115.7,79.6z"/>
<circle class="st0" cx="104.9" cy="40.5" r="3.7"/>
<circle class="st0" cx="45.9" cy="35" r="4.5"/>
<circle class="st0" cx="28" cy="29.1" r="3.7"/>
<circle class="st0" cx="106.2" cy="118.5" r="3.7"/>
<circle class="st0" cx="22" cy="101" r="3.7"/>
<circle class="st0" cx="46.2" cy="95" r="3.7"/>
<circle class="st0" cx="73.6" cy="103.7" r="3.7"/>
<circle class="st0" cx="86.6" cy="110.7" r="2.9"/>
<circle class="st0" cx="114.4" cy="112.2" r="2.7"/>
<path class="st0" d="M101.9,82c-3.1,0-3.1,0.1-3.2,3.2c0-3.1-0.1-3.1-3.2-3.2c3.1,0,3.1-0.1,3.2-3.2C98.8,81.9,98.9,81.9,101.9,82z"
	/>
<circle class="st0" cx="12.6" cy="68.4" r="4.4"/>
<circle class="st0" cx="123.5" cy="41.1" r="4.1"/>
<path class="st0" d="M137.3,74.2c-3.6,0.1-3.6,0.1-3.6,3.6c0-3.6-0.1-3.6-3.6-3.6c3.6,0,3.6-0.1,3.6-3.6
	C133.7,74.1,133.8,74.2,137.3,74.2z"/>
<path class="st0" d="M112.5,22.6c-3,0-3.1,0.1-3.1,3.1c0-3-0.1-3.1-3.1-3.1c3,0,3.1-0.1,3.1-3.1C109.4,22.5,109.5,22.5,112.5,22.6z"
	/>
<circle class="st0" cx="84.3" cy="30.6" r="3"/>
<path class="st0" d="M81.6,41.1C76.4,42,70,38,65.9,36.6c-4.1-1.4-21-2-20.4,14.1c0.1,14.3,7,20.2,7.9,32.9
	c0.8,16.6,3.6,19.9,6.5,20.3c3,0.5,6.6-11.5,8-18.8c2.1-9.2,7.6-12.4,10.5,0c1.4,7.3,5,19.3,8,18.8c3-0.5,5.7-3.7,6.5-20.3
	c0.9-12.8,7.8-18.6,7.9-32.9c0.5-16.1-16.4-15.5-20.5-14.1c-1.6,0.5-3.5,1.4-5.5,2.3C76.8,40.7,81.6,41.1,81.6,41.1z"/>
<text transform="matrix(1 0 0 1 154.6797 104.8754)" class="st0 st5 st6">M</text>
<text transform="matrix(1 0 0 1 188.6221 104.8754)" class="st0 st5 st6">aría </text>
<text transform="matrix(1 0 0 1 265.0605 104.8754)" class="st0 st5 st6">L</text>
<text transform="matrix(1 0 0 1 285.127 104.8754)" class="st0 st5 st6">ó</text>
<text transform="matrix(1 0 0 1 308.1973 104.8754)" class="st0 st5 st6">p</text>
<text transform="matrix(1 0 0 1 332.2285 104.8754)" class="st0 st5 st6">ez</text>
<g>
	<text transform="matrix(1 0 0 1 150.167 64.186)" class="st0 st7 st8">Cirujana Dentista</text>
</g>
</svg>
